<svg width="30" height="30" viewBox="0 0 30 30" fill="none" xmlns="http://www.w3.org/2000/svg">
<path d="M30 2.40946V23.2016C30 23.6258 29.8244 24.0326 29.5119 24.3326C29.1993 24.6325 28.7754 24.801 28.3334 24.801C27.8914 24.801 27.4675 24.6325 27.1549 24.3326C26.8424 24.0326 26.6668 23.6258 26.6668 23.2016V6.27L2.84667 29.1314C2.53395 29.4315 2.1098 29.6001 1.66754 29.6001C1.22528 29.6001 0.801136 29.4315 0.488412 29.1314C0.175687 28.8313 0 28.4242 0 27.9998C0 27.5754 0.175687 27.1684 0.488412 26.8682L24.3106 4.00885H6.66739C6.22537 4.00885 5.80146 3.84035 5.48891 3.5404C5.17636 3.24046 5.00077 2.83364 5.00077 2.40946C5.00077 1.98527 5.17636 1.57846 5.48891 1.27851C5.80146 0.978566 6.22537 0.810059 6.66739 0.810059H28.3334C28.7754 0.810059 29.1993 0.978566 29.5119 1.27851C29.8244 1.57846 30 1.98527 30 2.40946Z" fill="black"/>
</svg>
