<svg width="383" height="156" viewBox="0 0 383 156" fill="none" xmlns="http://www.w3.org/2000/svg">
<path d="M194.403 64.6729H199.84L187.154 91.494H181.754L186.683 80.8381H182.008L174.396 64.6729H180.159L187.263 80.4031H187.336L194.403 64.6729ZM207.528 87.6158H221.664V91.494H202.527V64.6729H221.265V68.5511H207.528V75.8001H219.997V79.6782H207.528V87.6158ZM243.534 91.494L241.686 85.0062H230.233L228.384 91.494H223.382L231.719 64.6729H240.562L248.862 91.494H243.534ZM231.356 81.128H240.599L236.032 65.1079H235.959L231.356 81.128ZM269.513 84.3901L273.536 91.494H267.954L262.119 80.6206H257.117V91.494H252.115V64.6729H262.517C268.824 64.6729 272.594 67.5363 272.594 72.3206C272.594 77.5036 268.897 80.5481 262.626 80.5481V80.6206C265.562 80.6206 268.172 81.9979 269.513 84.3901ZM257.117 76.9599H262.771C265.707 76.9599 267.411 75.3651 267.411 72.683C267.411 70.1096 265.707 68.5511 262.771 68.5511H257.117V76.9599ZM289.169 76.09C295.004 76.09 298.447 78.8446 298.447 83.5564C298.447 88.5582 294.823 91.494 288.661 91.494H277.317V64.6729H288.951C293.699 64.6729 296.49 66.8476 296.49 70.5446C296.49 73.9516 293.554 76.0175 288.625 76.0175V76.09H289.169ZM291.307 72.2843C291.307 69.9647 289.821 68.5511 287.32 68.5511H282.318V76.0175H287.32C289.821 76.0175 291.307 74.604 291.307 72.2843ZM288.915 87.6158C291.633 87.6158 293.264 86.0936 293.264 83.5564C293.264 81.0193 291.633 79.497 288.915 79.497H282.318V87.6158H288.915ZM313.785 91.8565C305.956 91.8565 301.317 86.746 301.317 78.0835C301.317 69.421 305.956 64.3105 313.785 64.3105C321.541 64.3105 326.181 69.421 326.181 78.0835C326.181 86.746 321.541 91.8565 313.785 91.8565ZM313.785 87.8695C318.316 87.8695 320.998 84.2088 320.998 78.0835C320.998 71.9581 318.316 68.2974 313.785 68.2974C309.182 68.2974 306.5 71.9581 306.5 78.0835C306.5 84.2088 309.182 87.8695 313.785 87.8695ZM341.783 91.8565C333.954 91.8565 329.314 86.746 329.314 78.0835C329.314 69.421 333.954 64.3105 341.783 64.3105C349.539 64.3105 354.178 69.421 354.178 78.0835C354.178 86.746 349.539 91.8565 341.783 91.8565ZM341.783 87.8695C346.313 87.8695 348.995 84.2088 348.995 78.0835C348.995 71.9581 346.313 68.2974 341.783 68.2974C337.18 68.2974 334.497 71.9581 334.497 78.0835C334.497 84.2088 337.18 87.8695 341.783 87.8695ZM369.055 77.4673L382.393 91.494H376.196L363.619 77.6848H363.546V91.494H358.726V64.6729H363.546V77.3586H363.619L375.108 64.6729H380.907L369.055 77.4673Z" fill="black"/>
<path d="M143.548 1.87952L158.332 1.87952V42.2892L143.548 42.2892V1.87952Z" fill="black"/>
<path d="M85.3656 58.265L100.15 58.265L100.15 98.6747H85.3656L85.3656 58.265Z" fill="black"/>
<path d="M28.1372 115.59H42.9213L42.9213 156H28.1372L28.1372 115.59Z" fill="black"/>
<path d="M117.318 1.87952L131.625 1.87952V42.2892L117.318 42.2892L117.318 1.87952Z" fill="black"/>
<path d="M59.1361 58.265L73.4432 58.265L73.4432 98.6747H59.1361L59.1361 58.265Z" fill="black"/>
<path d="M1.90748 115.59H16.2146L16.2146 156H1.90748L1.90748 115.59Z" fill="black"/>
<path fill-rule="evenodd" clip-rule="evenodd" d="M138.117 100.19C150.394 100.19 160.346 90.3837 160.346 78.2875C160.346 66.1914 150.394 56.3856 138.117 56.3856C125.84 56.3856 115.887 66.1914 115.887 78.2875C115.887 90.3837 125.84 100.19 138.117 100.19ZM138.117 87.7452C143.418 87.7452 147.716 83.5108 147.716 78.2875C147.716 73.0642 143.418 68.8298 138.117 68.8298C132.815 68.8298 128.518 73.0642 128.518 78.2875C128.518 83.5108 132.815 87.7452 138.117 87.7452Z" fill="black"/>
<path fill-rule="evenodd" clip-rule="evenodd" d="M22.2294 43.804C34.5064 43.804 44.4588 33.9981 44.4588 21.902C44.4588 9.80586 34.5064 0 22.2294 0C9.95245 0 0 9.80586 0 21.902C0 33.9981 9.95245 43.804 22.2294 43.804ZM22.2293 31.3597C27.5307 31.3597 31.8284 27.1254 31.8284 21.902C31.8284 16.6787 27.5307 12.4444 22.2293 12.4444C16.9279 12.4444 12.6302 16.6787 12.6302 21.902C12.6302 27.1254 16.9279 31.3597 22.2293 31.3597Z" fill="black"/>
<path d="M117.318 130.157V115.59H158.332V130.157H117.318Z" fill="black"/>
<path d="M1.90759 72.8313L1.90759 58.265L42.9213 58.265V72.8313H1.90759Z" fill="black"/>
<path d="M117.318 156V141.904H158.332V156H117.318Z" fill="black"/>
<path d="M1.90759 98.6747L1.90759 84.5783H42.9213V98.6747H1.90759Z" fill="black"/>
</svg>
