<svg width="166" height="111" viewBox="0 0 166 111" fill="none" xmlns="http://www.w3.org/2000/svg">
<path d="M37.5221 49.5805C33.0821 49.5805 28.0421 46.4205 28.0421 39.9405C28.0421 33.1405 33.3621 28.9005 38.5621 28.9005C43.9621 28.9005 46.8421 32.6205 46.8421 36.1005H31.6821C31.6421 36.5405 31.6021 36.9405 31.6021 37.3805C31.6021 42.6205 34.8021 46.3405 39.8821 46.3405C42.8421 46.3405 45.1221 45.0605 46.8021 43.1805L47.1621 43.5805C45.3221 46.3805 42.1621 49.5805 37.5221 49.5805ZM41.3621 23.1405L34.4821 26.0205L34.3221 25.7405L38.3621 21.4605C39.3621 20.4205 39.7621 20.3405 40.3621 20.3405C41.3621 20.3405 42.8821 21.2205 42.8821 21.7805C42.8821 22.2605 42.6421 22.5805 41.3621 23.1405ZM31.7221 35.5405H42.8021C42.2821 32.2605 40.0821 29.6605 37.3221 29.6205C33.9221 29.5805 32.2021 32.4205 31.7221 35.5405ZM60.0893 49.5805C54.8893 49.5805 49.4093 46.5005 49.4093 39.7005C49.4093 33.2205 54.6093 28.9005 60.0893 28.9005C65.0493 28.9005 70.7293 31.8205 70.7293 38.8605C70.7293 45.7005 64.8093 49.5805 60.0893 49.5805ZM61.4893 48.7005C65.4093 48.7005 66.6893 45.3005 66.6893 41.9005C66.6893 36.8205 63.2093 29.1805 58.0493 29.7005C54.5693 30.0605 53.4093 33.2605 53.4093 36.7005C53.4093 41.4205 56.2093 48.7005 61.4893 48.7005ZM73.508 49.1805V48.6205C74.828 48.1805 75.108 46.9805 75.108 44.1005V34.9005C75.108 32.5405 74.508 32.1405 73.508 31.7005V31.1405L78.788 28.8205L79.188 29.1405V32.5005C81.388 30.7005 84.268 28.9005 87.388 28.9005C91.068 28.9005 93.548 30.8205 93.548 35.5005V44.1005C93.548 46.9805 93.828 48.1805 95.148 48.6205V49.1805H87.868V48.6205C89.188 48.1805 89.468 46.9805 89.468 44.1005V36.2205C89.468 32.6205 87.908 30.5005 84.948 30.5005C83.068 30.5005 81.348 31.4205 79.188 33.1805V44.1005C79.188 46.9805 79.468 48.1805 80.788 48.6205V49.1805H73.508ZM97.0627 49.1805V48.6205C98.3827 48.1805 98.6627 46.9805 98.6627 44.1005V34.9005C98.6627 32.5405 98.0627 32.1405 97.0627 31.7005V31.1405L102.343 28.8205L102.743 29.1405V44.1005C102.743 46.9805 103.023 48.1805 104.343 48.6205V49.1805H97.0627ZM100.463 27.4605C98.9427 27.4605 97.7427 26.2605 97.7427 24.7405C97.7427 23.1805 98.9427 21.9805 100.463 21.9805C102.063 21.9805 103.183 23.1805 103.183 24.7405C103.183 26.2605 101.983 27.4605 100.463 27.4605ZM116.272 49.5805C111.832 49.5805 106.792 46.4205 106.792 39.9405C106.792 33.1405 112.112 28.9005 117.312 28.9005C122.712 28.9005 125.592 32.6205 125.592 36.1005H110.432C110.392 36.5405 110.352 36.9405 110.352 37.3805C110.352 42.6205 113.552 46.3405 118.632 46.3405C121.592 46.3405 123.872 45.0605 125.552 43.1805L125.912 43.5805C124.072 46.3805 120.912 49.5805 116.272 49.5805ZM110.472 35.5405H121.552C121.032 32.2605 118.832 29.6605 116.072 29.6205C112.672 29.5805 110.952 32.4205 110.472 35.5405Z" fill="black"/>
<path d="M51.8679 111H0V109.89C3.59588 109.018 4.35864 106.639 4.35864 100.931V9.27643C4.35864 3.56786 3.59588 1.98215 0 1.11V0H20.2677V1.11C16.6718 1.98215 15.909 3.56786 15.909 9.27643V105.609C15.909 108.146 17.8704 109.573 21.3574 109.573H30.2926C41.2981 109.573 46.9644 107.67 51.323 100.851L52.7396 101.01L51.8679 111Z" fill="black"/>
<path d="M43.2021 93.4135C42.1621 93.4135 41.6021 92.8535 41.6021 91.8135V85.2135C40.4821 89.8535 37.6021 93.8135 33.4421 93.8135C30.4821 93.8135 28.0021 91.9335 28.0021 88.5735C28.0021 84.4535 32.2021 82.8535 37.1621 81.4535L41.6021 80.1735C41.5221 76.2135 39.3621 74.6935 36.4021 74.6935C34.1621 74.6935 31.9621 75.6535 29.9221 78.0935L29.5221 77.7335C31.7621 74.9735 34.8421 73.1335 38.4821 73.1335C43.3221 73.1335 45.6021 75.7335 45.6021 80.6135V88.3335C45.6021 91.2135 45.8821 92.4135 47.2021 92.8535V93.4135H43.2021ZM31.7221 87.1735C31.7221 89.8135 33.6021 90.8935 35.4421 90.8935C39.3621 90.8935 41.5621 85.3735 41.6021 81.7735V80.7335L37.3221 81.9735C35.4421 82.4935 31.7221 83.8535 31.7221 87.1735ZM56.413 93.8135C52.173 93.8135 50.413 91.2135 50.413 86.3335V79.1335C50.413 76.7735 49.813 76.3735 48.813 75.9335V75.3735L54.093 73.0535L54.493 73.3735V85.8135C54.493 90.0935 55.173 92.2135 58.253 92.2135C60.053 92.2135 62.013 91.1335 63.973 89.1735V79.1335C63.973 76.7735 63.373 76.3735 62.373 75.9335V75.3735L67.653 73.0535L68.053 73.3735V88.3335C68.053 91.2135 68.333 92.4135 69.653 92.8535V93.4135H65.573C64.533 93.4135 63.973 92.8535 63.973 91.8135V90.0135C61.693 92.2135 58.933 93.8135 56.413 93.8135ZM71.9846 93.4135V92.8535C73.3046 92.4135 73.5846 91.2135 73.5846 88.3335V79.1335C73.5846 76.7735 72.9846 76.3735 71.9846 75.9335V75.3735L77.2646 73.0535L77.6646 73.3735V78.2135C78.2646 76.8135 79.3046 75.5735 80.5846 74.6935C82.0646 73.6535 83.5846 73.1335 85.5046 73.1335C86.8646 73.1335 88.0646 73.4935 88.0646 74.3335C88.0646 75.2135 87.1846 76.9335 85.3446 76.9335C84.2246 76.9335 82.7046 76.5335 80.1446 75.7335C79.1446 76.5735 77.7846 78.3735 77.6646 80.3735V88.3335C77.6646 91.2135 77.9446 92.4135 79.2646 92.8535V93.4135H71.9846ZM97.6783 93.8135C93.2383 93.8135 88.1983 90.6535 88.1983 84.1735C88.1983 77.3735 93.5183 73.1335 98.7183 73.1335C104.118 73.1335 106.998 76.8535 106.998 80.3335H91.8383C91.7983 80.7735 91.7583 81.1735 91.7583 81.6135C91.7583 86.8535 94.9583 90.5735 100.038 90.5735C102.998 90.5735 105.278 89.2935 106.958 87.4135L107.318 87.8135C105.478 90.6135 102.318 93.8135 97.6783 93.8135ZM91.8783 79.7735H102.958C102.438 76.4935 100.238 73.8935 97.4783 73.8535C94.0783 73.8135 92.3583 76.6535 91.8783 79.7735ZM109.446 93.4135V92.8535C110.766 92.4135 111.046 91.2135 111.046 88.3335V79.1335C111.046 76.7735 110.446 76.3735 109.446 75.9335V75.3735L114.726 73.0535L115.126 73.3735V76.7335C117.326 74.9335 120.206 73.1335 123.326 73.1335C127.006 73.1335 129.486 75.0535 129.486 79.7335V88.3335C129.486 91.2135 129.766 92.4135 131.086 92.8535V93.4135H123.806V92.8535C125.126 92.4135 125.406 91.2135 125.406 88.3335V80.4535C125.406 76.8535 123.846 74.7335 120.886 74.7335C119.006 74.7335 117.286 75.6535 115.126 77.4135V88.3335C115.126 91.2135 115.406 92.4135 116.726 92.8535V93.4135H109.446ZM139.4 93.8135C136.68 93.8135 135.24 92.0935 135.24 87.7735V74.0535H132.68V73.4135L138.68 68.1335H139.32V73.4135H145.52L145.36 74.0535H139.32V87.8135C139.32 90.2935 140.24 91.3735 142 91.3735C142.88 91.3735 144.24 91.0135 145.56 89.3735L145.96 89.7735C143.84 92.2135 141.8 93.8135 139.4 93.8135Z" fill="black"/>
</svg>
