<svg width="614" height="414" viewBox="0 0 614 414" fill="none" xmlns="http://www.w3.org/2000/svg">
<path d="M139.56 172.7C120.69 172.7 99.27 159.27 99.27 131.73C99.27 102.83 121.88 84.81 143.98 84.81C166.93 84.81 179.17 100.62 179.17 115.41H114.74C114.57 117.28 114.4 118.98 114.4 120.85C114.4 143.12 128 158.93 149.59 158.93C162.17 158.93 171.86 153.49 179 145.5L180.53 147.2C172.71 159.1 159.28 172.7 139.56 172.7ZM155.88 60.33L126.64 72.57L125.96 71.38L143.13 53.19C147.38 48.77 149.08 48.43 151.63 48.43C155.88 48.43 162.34 52.17 162.34 54.55C162.34 56.59 161.32 57.95 155.88 60.33ZM114.91 113.03H162C159.79 99.09 150.44 88.04 138.71 87.87C124.26 87.7 116.95 99.77 114.91 113.03ZM235.471 172.7C213.371 172.7 190.081 159.61 190.081 130.71C190.081 103.17 212.181 84.81 235.471 84.81C256.551 84.81 280.691 97.22 280.691 127.14C280.691 156.21 255.531 172.7 235.471 172.7ZM241.421 168.96C258.081 168.96 263.521 154.51 263.521 140.06C263.521 118.47 248.731 86 226.801 88.21C212.011 89.74 207.081 103.34 207.081 117.96C207.081 138.02 218.981 168.96 241.421 168.96ZM292.5 171V168.62C298.11 166.75 299.3 161.65 299.3 149.41V110.31C299.3 100.28 296.75 98.58 292.5 96.71V94.33L314.94 84.47L316.64 85.83V100.11C325.99 92.46 338.23 84.81 351.49 84.81C367.13 84.81 377.67 92.97 377.67 112.86V149.41C377.67 161.65 378.86 166.75 384.47 168.62V171H353.53V168.62C359.14 166.75 360.33 161.65 360.33 149.41V115.92C360.33 100.62 353.7 91.61 341.12 91.61C333.13 91.61 325.82 95.52 316.64 103V149.41C316.64 161.65 317.83 166.75 323.44 168.62V171H292.5ZM392.608 171V168.62C398.218 166.75 399.408 161.65 399.408 149.41V110.31C399.408 100.28 396.858 98.58 392.608 96.71V94.33L415.048 84.47L416.748 85.83V149.41C416.748 161.65 417.938 166.75 423.548 168.62V171H392.608ZM407.058 78.69C400.598 78.69 395.498 73.59 395.498 67.13C395.498 60.5 400.598 55.4 407.058 55.4C413.858 55.4 418.618 60.5 418.618 67.13C418.618 73.59 413.518 78.69 407.058 78.69ZM474.248 172.7C455.378 172.7 433.958 159.27 433.958 131.73C433.958 102.83 456.568 84.81 478.667 84.81C501.618 84.81 513.858 100.62 513.858 115.41H449.428C449.258 117.28 449.088 118.98 449.088 120.85C449.088 143.12 462.688 158.93 484.278 158.93C496.858 158.93 506.548 153.49 513.688 145.5L515.218 147.2C507.398 159.1 493.968 172.7 474.248 172.7ZM449.598 113.03H496.688C494.478 99.09 485.128 88.04 473.398 87.87C458.948 87.7 451.638 99.77 449.598 113.03Z" fill="black"/>
<path d="M151.455 414H0V409.86C10.5 406.607 12.7273 397.736 12.7273 376.444V34.5986C12.7273 13.3071 10.5 7.39287 0 4.14V0H59.1818V4.14C48.6818 7.39287 46.4545 13.3071 46.4545 34.5986V393.891C46.4545 403.354 52.1818 408.677 62.3636 408.677H88.4545C120.591 408.677 137.136 401.58 149.864 376.149L154 376.74L151.455 414Z" fill="black"/>
<path d="M163.7 335C159.28 335 156.9 332.62 156.9 328.2V300.15C152.14 319.87 139.9 336.7 122.22 336.7C109.64 336.7 99.1 328.71 99.1 314.43C99.1 296.92 116.95 290.12 138.03 284.17L156.9 278.73C156.56 261.9 147.38 255.44 134.8 255.44C125.28 255.44 115.93 259.52 107.26 269.89L105.56 268.36C115.08 256.63 128.17 248.81 143.64 248.81C164.21 248.81 173.9 259.86 173.9 280.6V313.41C173.9 325.65 175.09 330.75 180.7 332.62V335H163.7ZM114.91 308.48C114.91 319.7 122.9 324.29 130.72 324.29C147.38 324.29 156.73 300.83 156.9 285.53V281.11L138.71 286.38C130.72 288.59 114.91 294.37 114.91 308.48ZM219.846 336.7C201.826 336.7 194.346 325.65 194.346 304.91V274.31C194.346 264.28 191.796 262.58 187.546 260.71V258.33L209.986 248.47L211.686 249.83V302.7C211.686 320.89 214.576 329.9 227.666 329.9C235.316 329.9 243.646 325.31 251.976 316.98V274.31C251.976 264.28 249.426 262.58 245.176 260.71V258.33L267.616 248.47L269.316 249.83V313.41C269.316 325.65 270.506 330.75 276.116 332.62V335H258.776C254.356 335 251.976 332.62 251.976 328.2V320.55C242.286 329.9 230.556 336.7 219.846 336.7ZM286.026 335V332.62C291.636 330.75 292.826 325.65 292.826 313.41V274.31C292.826 264.28 290.276 262.58 286.026 260.71V258.33L308.466 248.47L310.166 249.83V270.4C312.716 264.45 317.136 259.18 322.576 255.44C328.866 251.02 335.326 248.81 343.486 248.81C349.266 248.81 354.366 250.34 354.366 253.91C354.366 257.65 350.626 264.96 342.806 264.96C338.046 264.96 331.586 263.26 320.706 259.86C316.456 263.43 310.676 271.08 310.166 279.58V313.41C310.166 325.65 311.356 330.75 316.966 332.62V335H286.026ZM395.224 336.7C376.354 336.7 354.934 323.27 354.934 295.73C354.934 266.83 377.544 248.81 399.644 248.81C422.594 248.81 434.834 264.62 434.834 279.41H370.404C370.234 281.28 370.064 282.98 370.064 284.85C370.064 307.12 383.664 322.93 405.254 322.93C417.834 322.93 427.524 317.49 434.664 309.5L436.194 311.2C428.374 323.1 414.944 336.7 395.224 336.7ZM370.574 277.03H417.664C415.454 263.09 406.104 252.04 394.374 251.87C379.924 251.7 372.614 263.77 370.574 277.03ZM445.235 335V332.62C450.845 330.75 452.035 325.65 452.035 313.41V274.31C452.035 264.28 449.485 262.58 445.235 260.71V258.33L467.675 248.47L469.375 249.83V264.11C478.725 256.46 490.965 248.81 504.225 248.81C519.865 248.81 530.405 256.97 530.405 276.86V313.41C530.405 325.65 531.595 330.75 537.205 332.62V335H506.265V332.62C511.875 330.75 513.065 325.65 513.065 313.41V279.92C513.065 264.62 506.435 255.61 493.855 255.61C485.865 255.61 478.555 259.52 469.375 267V313.41C469.375 325.65 470.565 330.75 476.175 332.62V335H445.235ZM572.542 336.7C560.982 336.7 554.862 329.39 554.862 311.03V252.72H543.982V250L569.482 227.56H572.202V250H598.552L597.872 252.72H572.202V311.2C572.202 321.74 576.112 326.33 583.592 326.33C587.332 326.33 593.112 324.8 598.722 317.83L600.422 319.53C591.412 329.9 582.742 336.7 572.542 336.7Z" fill="black"/>
</svg>
